<svg width="16" height="16" viewBox="0 0 16 16" fill="none" xmlns="http://www.w3.org/2000/svg">
<mask id="mask0_4404_10864" style="mask-type:alpha" maskUnits="userSpaceOnUse" x="1" y="0" width="14" height="16">
<path d="M11.9998 3.99984C11.9998 6.2089 10.209 7.99969 7.99994 7.99969C5.79088 7.99969 4.00009 6.2089 4.00009 3.99984C4.00009 1.79079 5.79088 0 7.99994 0C10.209 0 11.9998 1.79079 11.9998 3.99984Z" fill="#006FFD"/>
<path d="M1.3335 13.3332C1.3335 11.1241 3.12429 9.33333 5.33334 9.33333H10.6665C12.8755 9.33333 14.6663 11.1241 14.6663 13.3332V13.9998C14.6663 15.1043 13.7709 15.9997 12.6664 15.9997H3.33342C2.22889 15.9997 1.3335 15.1043 1.3335 13.9998V13.3332Z" fill="#006FFD"/>
</mask>
<g mask="url(#mask0_4404_10864)">
<rect y="-0.00195312" width="15.9994" height="15.9994" fill="#D7E0F4"/>
</g>
</svg>
