<svg width="19" height="17" viewBox="0 0 19 17" fill="none" xmlns="http://www.w3.org/2000/svg">
<path fill-rule="evenodd" clip-rule="evenodd" d="M18.5 8.18359C18.5 7.63131 18.0523 7.18359 17.5 7.18359H1C0.447716 7.18359 0 7.63131 0 8.18359C0 8.73588 0.447716 9.18359 1 9.18359H17.5C18.0523 9.18359 18.5 8.73588 18.5 8.18359Z" fill="#E0E0E0"/>
<path fill-rule="evenodd" clip-rule="evenodd" d="M10.0652 0.271248C9.66274 0.64944 9.64306 1.2823 10.0212 1.68478L16.1278 8.18347L10.0212 14.6822C9.64306 15.0846 9.66274 15.7175 10.0652 16.0957C10.4677 16.4739 11.1006 16.4542 11.4788 16.0517L18.2288 8.86825C18.5904 8.48336 18.5904 7.88358 18.2288 7.49869L11.4788 0.315223C11.1006 -0.087256 10.4677 -0.106944 10.0652 0.271248Z" fill="#E0E0E0"/>
</svg>
