<svg width="30" height="30" viewBox="0 0 30 30" fill="none" xmlns="http://www.w3.org/2000/svg">
<path d="M15 30C23.27 30 30 23.27 30 15C30 6.73002 23.2701 0 15 0C6.72993 0 0 6.73002 0 15C0 23.27 6.73002 30 15 30ZM15 1.99997C22.17 1.99997 28 7.82995 28 15C28 22.1701 22.1701 28 15 28C7.82995 28 1.99997 22.1701 1.99997 15C1.99997 7.82995 7.83003 1.99997 15 1.99997Z" fill="#929BAD"/>
<path d="M19.375 19.7805C19.56 19.9305 19.78 20.0005 20 20.0005C20.295 20.0005 20.585 19.8705 20.7799 19.6255C21.125 19.1955 21.0549 18.5655 20.625 18.2205L16 14.5205V7.00047C16 6.45046 15.55 6.00049 15 6.00049C14.45 6.00049 14 6.45046 14 7.00047V15.0005C14 15.3055 14.14 15.5905 14.375 15.7805L19.375 19.7805Z" fill="#929BAD"/>
</svg>
