<svg width="17" height="16" viewBox="0 0 17 16" fill="none" xmlns="http://www.w3.org/2000/svg">
<g clip-path="url(#clip0_40004004_13365)">
<path fill-rule="evenodd" clip-rule="evenodd" d="M0.997325 0.513562C1.55838 -0.0474889 2.46802 -0.0474895 3.02907 0.513561L8.47816 5.96264L13.9272 0.513561C14.4883 -0.0474895 15.3979 -0.0474889 15.959 0.513562C16.52 1.07461 16.52 1.98426 15.959 2.54531L10.5099 7.99438L15.959 13.4435C16.52 14.0045 16.52 14.9142 15.959 15.4752C15.3979 16.0363 14.4883 16.0363 13.9272 15.4752L8.47816 10.0261L3.02907 15.4752C2.46802 16.0363 1.55838 16.0363 0.997325 15.4752C0.436275 14.9142 0.436276 14.0045 0.997327 13.4435L6.44641 7.99438L0.997327 2.54531C0.436276 1.98426 0.436275 1.07461 0.997325 0.513562Z" fill="#929BAD"/>
</g>
<defs>
<clipPath id="clip0_40004004_13365">
<rect width="17" height="16" fill="white"/>
</clipPath>
</defs>
</svg>
