<svg width="17" height="16" viewBox="0 0 17 16" fill="none" xmlns="http://www.w3.org/2000/svg">
<path d="M16.2475 6.05938C15.6459 5.07423 14.8871 4.19424 14.001 3.45435L15.867 1.58837C15.9884 1.46269 16.0556 1.29435 16.0541 1.11961C16.0525 0.94488 15.9825 0.777734 15.8589 0.654174C15.7353 0.530615 15.5682 0.460528 15.3935 0.45901C15.2187 0.457491 15.0504 0.524663 14.9247 0.646056L12.8955 2.67797C11.6375 1.93079 10.1994 1.54137 8.73633 1.55172C4.61052 1.55172 2.25939 4.37601 1.22511 6.05938C0.905581 6.5762 0.736328 7.1718 0.736328 7.77941C0.736328 8.38703 0.905581 8.98263 1.22511 9.49944C1.82673 10.4846 2.5856 11.3646 3.47161 12.1045L1.60564 13.9705C1.54199 14.0319 1.49122 14.1055 1.45629 14.1868C1.42136 14.2681 1.40298 14.3555 1.40221 14.444C1.40144 14.5325 1.4183 14.6203 1.45181 14.7022C1.48532 14.7841 1.5348 14.8585 1.59738 14.921C1.65995 14.9836 1.73436 15.0331 1.81626 15.0666C1.89816 15.1001 1.98591 15.117 2.0744 15.1162C2.16288 15.1154 2.25033 15.097 2.33164 15.0621C2.41294 15.0272 2.48648 14.9764 2.54795 14.9128L4.58187 12.8789C5.83825 13.6259 7.27465 14.016 8.73633 14.0071C12.8621 14.0071 15.2133 11.1828 16.2475 9.49944C16.5671 8.98263 16.7363 8.38703 16.7363 7.77941C16.7363 7.1718 16.5671 6.5762 16.2475 6.05938V6.05938ZM2.36069 8.8017C2.17085 8.49451 2.0703 8.14053 2.0703 7.77941C2.0703 7.4183 2.17085 7.06431 2.36069 6.75713C3.24969 5.31366 5.25895 2.88456 8.73633 2.88456C9.84277 2.87836 10.9337 3.14502 11.9125 3.66094L10.571 5.00244C9.93117 4.57767 9.16411 4.38733 8.39994 4.46374C7.63578 4.54014 6.92158 4.87858 6.37854 5.42162C5.83549 5.96466 5.49706 6.67886 5.42065 7.44303C5.34425 8.20719 5.53458 8.97426 5.95936 9.61407L4.41993 11.1535C3.60363 10.4936 2.90705 9.698 2.36069 8.8017V8.8017ZM10.7356 7.77941C10.7356 8.30965 10.525 8.81817 10.15 9.1931C9.77508 9.56804 9.26656 9.77867 8.73633 9.77867C8.43945 9.77752 8.14668 9.70917 7.87998 9.57875L10.5357 6.92306C10.6661 7.18976 10.7344 7.48253 10.7356 7.77941V7.77941ZM6.73707 7.77941C6.73707 7.24918 6.9477 6.74066 7.32264 6.36572C7.69757 5.99079 8.20609 5.78015 8.73633 5.78015C9.03321 5.7813 9.32598 5.84965 9.59268 5.98008L6.937 8.63576C6.80657 8.36906 6.73822 8.07629 6.73707 7.77941ZM15.112 8.8017C14.223 10.2452 12.2137 12.6743 8.73633 12.6743C7.62989 12.6805 6.53898 12.4138 5.56017 11.8979L6.90167 10.5564C7.54148 10.9812 8.30855 11.1715 9.07271 11.0951C9.83688 11.0187 10.5511 10.6802 11.0941 10.1372C11.6372 9.59416 11.9756 8.87997 12.052 8.1158C12.1284 7.35163 11.9381 6.58457 11.5133 5.94476L13.0527 4.40533C13.869 5.06527 14.5656 5.86082 15.112 6.75713C15.3018 7.06431 15.4024 7.4183 15.4024 7.77941C15.4024 8.14053 15.3018 8.49451 15.112 8.8017V8.8017Z" fill="#4B5563"/>
</svg>
