<svg width="24" height="30" viewBox="0 0 24 30" fill="none" xmlns="http://www.w3.org/2000/svg">
<path d="M12 0C5.79562 0 0.75 5.04562 0.75 11.25C0.75 19.0481 10.905 29.2931 11.3363 29.7262C11.52 29.9081 11.76 30 12 30C12.24 30 12.48 29.9081 12.6637 29.7262C13.095 29.2931 23.25 19.0481 23.25 11.25C23.25 5.04562 18.2044 0 12 0ZM12 27.7069C9.76125 25.3106 2.625 17.2069 2.625 11.25C2.625 6.08063 6.83063 1.875 12 1.875C17.1694 1.875 21.375 6.08063 21.375 11.25C21.375 17.2013 14.2388 25.3106 12 27.7069Z" fill="#929BAD"/>
<path d="M12 5.625C8.89875 5.625 6.375 8.14875 6.375 11.25C6.375 14.3512 8.89875 16.875 12 16.875C15.1012 16.875 17.625 14.3512 17.625 11.25C17.625 8.14875 15.1012 5.625 12 5.625ZM12 15C9.93187 15 8.25 13.3181 8.25 11.25C8.25 9.18187 9.93187 7.5 12 7.5C14.0681 7.5 15.75 9.18187 15.75 11.25C15.75 13.3181 14.0681 15 12 15Z" fill="#929BAD"/>
</svg>
