<svg width="22" height="22" viewBox="0 0 22 22" fill="none" xmlns="http://www.w3.org/2000/svg">
<path d="M13.8465 4.06404C11.4749 4.06404 9.54498 5.994 9.54498 8.36562C9.54498 10.7372 11.4749 12.6672 13.8465 12.6672C16.2182 12.6672 18.1481 10.7372 18.1481 8.36562C18.1481 5.994 16.2182 4.06404 13.8465 4.06404ZM13.8465 0.376953C9.44176 0.376953 5.85794 3.96082 5.85794 8.36569C5.85794 10.3473 6.58755 12.1589 7.7867 13.5567L7.08698 14.2564L6.65251 13.8219C6.41244 13.5819 6.02357 13.5819 5.78357 13.8219L1.12194 18.4836C0.881878 18.7237 0.881878 19.1126 1.12194 19.3526L2.85982 21.0905C3.09989 21.3306 3.4887 21.3306 3.72876 21.0905L8.39039 16.4288C8.63045 16.1887 8.63045 15.7998 8.39039 15.5598L7.95592 15.1254L8.65564 14.4256C10.0533 15.6248 11.8649 16.3544 13.8465 16.3544C18.2513 16.3544 21.8352 12.7706 21.8352 8.36569C21.8352 3.96082 18.2513 0.376953 13.8465 0.376953ZM13.8465 13.8963C10.7968 13.8963 8.31595 11.4155 8.31595 8.36569C8.31595 5.31592 10.7968 2.83506 13.8465 2.83506C16.8962 2.83506 19.3771 5.31592 19.3771 8.36569C19.3771 11.4155 16.8963 13.8963 13.8465 13.8963Z" fill="white"/>
</svg>
