<svg width="25" height="22" viewBox="0 0 25 22" fill="none" xmlns="http://www.w3.org/2000/svg">
<path d="M0.437131 10.332L6.13967 12.4604L8.34691 19.5588C8.48814 20.0135 9.04407 20.1815 9.41307 19.8798L12.5918 17.2885C12.925 17.017 13.3996 17.0035 13.7478 17.2562L19.481 21.4187C19.8757 21.7056 20.435 21.4893 20.534 21.0123L24.7339 0.810055C24.8419 0.289018 24.33 -0.145648 23.8338 0.0462354L0.430449 9.07456C-0.147098 9.29729 -0.142066 10.115 0.437131 10.332ZM7.99119 11.3274L19.1361 4.46326C19.3364 4.34026 19.5425 4.61109 19.3704 4.77064L10.1727 13.3204C9.84939 13.6213 9.64084 14.0241 9.58177 14.4612L9.26846 16.7831C9.22696 17.0931 8.79147 17.1239 8.70592 16.8239L7.50092 12.5898C7.36291 12.1069 7.56403 11.5911 7.99119 11.3274Z" fill="#929BAD"/>
</svg>
