<svg width="34" height="34" viewBox="0 0 34 34" fill="none" xmlns="http://www.w3.org/2000/svg">
<path d="M29.1704 19.778C30.2562 20.838 31.4021 21.8353 32.3759 23.0023C32.8061 23.5209 33.2134 24.056 33.525 24.6578C33.9664 25.5133 33.5666 26.4548 32.7995 26.5058L28.031 26.5037C26.8011 26.6057 25.82 26.1106 24.995 25.2697C24.3348 24.5972 23.7234 23.8815 23.0886 23.1864C22.8284 22.9023 22.5559 22.6349 22.2305 22.4236C21.5796 22.001 21.0145 22.1304 20.6425 22.8093C20.2637 23.4999 20.1777 24.2645 20.1405 25.034C20.0894 26.1569 19.75 26.4521 18.6221 26.5035C16.2117 26.6172 13.924 26.2525 11.7988 25.0365C9.92517 23.9646 8.47231 22.4512 7.20766 20.7379C4.74555 17.4019 2.85995 13.7361 1.16531 9.96756C0.783843 9.11851 1.06283 8.66276 1.99965 8.64658C3.55524 8.61634 5.11065 8.61852 6.66809 8.64441C7.30036 8.65368 7.7189 9.01629 7.96305 9.61358C8.80468 11.683 9.83452 13.6519 11.1272 15.4769C11.4714 15.9628 11.8225 16.4487 12.3223 16.7907C12.8753 17.1693 13.2963 17.0438 13.5564 16.4278C13.7215 16.0372 13.7938 15.6165 13.831 15.1982C13.9543 13.759 13.9705 12.3221 13.7543 10.8879C13.6216 9.99287 13.1175 9.41342 12.2243 9.24407C11.7686 9.1577 11.8364 8.98809 12.0571 8.72796C12.4403 8.27931 12.8008 8 13.5195 8H18.9086C19.757 8.16743 19.9454 8.54858 20.0616 9.40223L20.0662 15.3884C20.0569 15.7188 20.2312 16.6996 20.8265 16.9183C21.3029 17.074 21.6169 16.6929 21.9028 16.3908C23.1931 15.0214 24.114 13.4029 24.9367 11.7271C25.3018 10.9902 25.6157 10.2249 25.92 9.46027C26.1454 8.8929 26.4991 8.61372 27.1382 8.62606L32.3249 8.63066C32.4787 8.63066 32.6344 8.6329 32.7833 8.65841C33.6573 8.80736 33.8968 9.18333 33.6269 10.0368C33.2015 11.3758 32.374 12.4917 31.5648 13.6127C30.6998 14.8095 29.7747 15.9654 28.917 17.1693C28.1289 18.2689 28.1915 18.8231 29.1704 19.778Z" fill="#929BAD"/>
</svg>
