<svg width="33" height="24" viewBox="0 0 33 24" fill="none" xmlns="http://www.w3.org/2000/svg">
<path d="M31.456 1.97742C30.2745 0.572912 28.0931 0 23.9271 0H8.80444C4.54307 0 2.3247 0.609868 1.14762 2.10519C0 3.56312 0 5.71128 0 8.68439V14.3511C0 20.111 1.36165 23.0354 8.80444 23.0354H23.9272C27.5399 23.0354 29.5419 22.5298 30.837 21.2904C32.1652 20.0193 32.7318 17.944 32.7318 14.3511V8.68439C32.7318 5.549 32.643 3.38817 31.456 1.97742ZM21.0139 12.3001L14.1468 15.8891C13.9933 15.9693 13.8254 16.0091 13.6577 16.0091C13.4679 16.0091 13.2785 15.958 13.1107 15.8565C12.7948 15.665 12.6019 15.3226 12.6019 14.9533V7.79831C12.6019 7.4296 12.7942 7.0875 13.1095 6.89596C13.4249 6.70443 13.8172 6.69134 14.1444 6.86133L21.0115 10.4272C21.3609 10.6086 21.5803 10.9693 21.5808 11.3628C21.5813 11.7566 21.3628 12.1179 21.0139 12.3001Z" fill="#929BAD"/>
</svg>
