<svg width="19" height="19" viewBox="0 0 19 19" fill="none" xmlns="http://www.w3.org/2000/svg">
<mask id="mask0_40004001_1043" style="mask-type:alpha" maskUnits="userSpaceOnUse" x="1" y="0" width="17" height="19">
<path fill-rule="evenodd" clip-rule="evenodd" d="M6.86271 1.03228C7.57191 0.365103 8.52156 0 9.50004 0C10.4785 0 11.4282 0.365103 12.1374 1.03228C12.8486 1.70138 13.2605 2.62226 13.2605 3.59622V8.94669C13.2605 9.49322 12.8174 9.93627 12.2709 9.93627C11.7243 9.93627 11.2813 9.49322 11.2813 8.94669V3.59622C11.2813 3.18754 11.1093 2.7824 10.7813 2.47382C10.4512 2.16332 9.99131 1.97917 9.50004 1.97917C9.00878 1.97917 8.54889 2.16332 8.21883 2.47382C7.89082 2.7824 7.71879 3.18754 7.71879 3.59622V8.94669C7.71879 9.49322 7.27574 9.93627 6.72921 9.93627C6.18268 9.93627 5.73963 9.49322 5.73963 8.94669V3.59622C5.73963 2.62226 6.15146 1.70138 6.86271 1.03228Z" fill="#006FFD"/>
<path fill-rule="evenodd" clip-rule="evenodd" d="M2.2745 8.08684C2.37094 6.74064 3.4912 5.69776 4.84084 5.69776H14.1592C15.5088 5.69776 16.6291 6.74064 16.7255 8.08684L17.2926 16.0035C17.3993 17.4931 16.2197 18.7603 14.7263 18.7603H4.27373C2.78035 18.7603 1.60069 17.4931 1.70739 16.0035L2.2745 8.08684ZM4.84084 7.67693C4.52939 7.67693 4.27087 7.91759 4.24861 8.22825L3.6815 16.1449C3.65688 16.4887 3.92911 16.7811 4.27373 16.7811H14.7263C15.0709 16.7811 15.3431 16.4887 15.3185 16.1449L14.7514 8.22826C14.7291 7.91759 14.4706 7.67693 14.1592 7.67693H4.84084Z" fill="#006FFD"/>
</mask>
<g mask="url(#mask0_40004001_1043)">
<rect width="19" height="19" fill="#273656"/>
</g>
</svg>
